ply
format ascii 1.0
comment STLB ATF 2.0.0.9000
element vertex 56
property float x
property float y
property float z
element face 108
property list uchar int vertex_indices
end_header
-8.2550001 -10.0711 -15.24
-8.2550001 -10.0711 15.24
-8.2550001 -9.0551004 -15.24
-8.2550001 -9.0551004 15.24
-8.2550001 9.0551004 -15.24
-8.2550001 9.0551004 15.24
-8.2550001 10.0711 -15.24
-8.2550001 10.0711 15.24
-0.94912291 -9.0551004 -15.24
-0.94912291 -9.0551004 15.24
-0.94912291 9.0551004 -15.24
-0.94912291 9.0551004 15.24
-0.70498127 -9.0065374 -15.24
-0.70498127 -9.0065374 15.24
-0.70498127 9.0065374 -15.24
-0.70498127 9.0065374 15.24
-0.49800795 -8.8682423 -15.24
-0.49800795 -8.8682423 15.24
-0.49800795 8.8682423 -15.24
-0.49800795 8.8682423 15.24
-0.35971281 -8.6612692 -15.24
-0.35971281 -8.6612692 15.24
-0.35971281 8.6612692 -15.24
-0.35971281 8.6612692 15.24
-0.31115001 -8.4171267 -15.24
-0.31115001 -8.4171267 15.24
-0.31115001 8.4171267 -15.24
-0.31115001 8.4171267 15.24
0.31115001 -8.4171267 -15.24
0.31115001 -8.4171267 15.24
0.31115001 8.4171267 -15.24
0.31115001 8.4171267 15.24
0.35971281 -8.6612692 -15.24
0.35971281 -8.6612692 15.24
0.35971281 8.6612692 -15.24
0.35971281 8.6612692 15.24
0.49800795 -8.8682423 -15.24
0.49800795 -8.8682423 15.24
0.49800795 8.8682423 -15.24
0.49800795 8.8682423 15.24
0.70498127 -9.0065374 -15.24
0.70498127 -9.0065374 15.24
0.70498127 9.0065374 -15.24
0.70498127 9.0065374 15.24
0.94912291 -9.0551004 -15.24
0.94912291 -9.0551004 15.24
0.94912291 9.0551004 -15.24
0.94912291 9.0551004 15.24
8.2550001 -10.0711 -15.24
8.2550001 -10.0711 15.24
8.2550001 -9.0551004 -15.24
8.2550001 -9.0551004 15.24
8.2550001 9.0551004 -15.24
8.2550001 9.0551004 15.24
8.2550001 10.0711 -15.24
8.2550001 10.0711 15.24
3 2 8 0
3 0 8 44
3 0 44 48
3 48 44 50
3 44 8 40
3 40 8 12
3 40 12 36
3 36 12 16
3 36 16 32
3 32 16 20
3 32 20 28
3 28 20 24
3 28 24 30
3 30 24 26
3 30 26 34
3 34 26 22
3 34 22 38
3 38 22 18
3 38 18 42
3 42 18 14
3 42 14 46
3 46 14 10
3 46 10 54
3 54 10 6
3 6 10 4
3 54 52 46
3 3 9 2
3 2 9 8
3 9 13 8
3 8 13 12
3 12 13 17
3 12 17 16
3 16 17 20
3 20 17 21
3 20 21 25
3 25 24 20
3 25 27 24
3 24 27 26
3 27 23 26
3 26 23 22
3 22 23 19
3 22 19 18
3 18 19 14
3 14 19 15
3 14 15 11
3 11 10 14
3 11 5 10
3 10 5 4
3 5 7 4
3 4 7 6
3 7 55 6
3 6 55 54
3 55 53 54
3 54 53 52
3 53 47 52
3 52 47 46
3 47 43 46
3 46 43 42
3 42 43 39
3 42 39 38
3 38 39 34
3 34 39 35
3 34 35 31
3 31 30 34
3 31 29 30
3 30 29 28
3 29 33 28
3 28 33 32
3 32 33 37
3 32 37 36
3 36 37 40
3 40 37 41
3 40 41 45
3 45 44 40
3 45 51 44
3 44 51 50
3 51 49 50
3 50 49 48
3 49 1 48
3 48 1 0
3 1 3 0
3 0 3 2
3 3 1 9
3 9 1 49
3 9 49 45
3 45 49 51
3 9 45 13
3 13 45 41
3 13 41 17
3 17 41 37
3 17 37 21
3 21 37 33
3 21 33 25
3 25 33 29
3 25 29 27
3 27 29 31
3 27 31 23
3 23 31 35
3 23 35 19
3 19 35 39
3 19 39 15
3 15 39 43
3 15 43 11
3 11 43 47
3 11 47 7
3 7 47 55
3 55 47 53
3 7 5 11
